<svg width="24" height="24" viewBox="0 0 24 24" fill="none" xmlns="http://www.w3.org/2000/svg">
<path d="M14.6667 22V13L22.3133 5.33332C22.427 5.21967 22.5168 5.08447 22.5774 4.93564C22.6381 4.78682 22.6685 4.62737 22.6667 4.46666V3.33332C22.6667 3.15651 22.5964 2.98694 22.4714 2.86192C22.3464 2.73689 22.1768 2.66666 22 2.66666H2C1.82319 2.66666 1.65362 2.73689 1.5286 2.86192C1.40357 2.98694 1.33333 3.15651 1.33333 3.33332V4.44666C1.33346 4.60411 1.36474 4.75999 1.42538 4.9053C1.48603 5.05061 1.57483 5.18249 1.68667 5.29332L9.33333 13.0533V19.8533L14.6667 22Z" fill="black"/>
<path d="M22.32 2.66666H1.65333C1.56609 2.67339 1.48462 2.71286 1.42527 2.77716C1.36592 2.84146 1.33307 2.92582 1.33333 3.01332V4.15999C1.33253 4.27752 1.35511 4.39404 1.39974 4.50276C1.44438 4.61149 1.51018 4.71026 1.59333 4.79332L9.59333 12.7933V19.46L14.4267 21.8667V12.78L22.4267 4.77999C22.5797 4.6149 22.6654 4.39845 22.6667 4.17332V3.01332C22.6667 2.92138 22.6301 2.83321 22.5651 2.76819C22.5001 2.70318 22.4119 2.66666 22.32 2.66666V2.66666Z" fill="black"/>
</svg>
