<svg width="34" height="34" viewBox="0 0 34 34" fill="none" xmlns="http://www.w3.org/2000/svg">
<g clip-path="url(#clip0)">
<path fill-rule="evenodd" clip-rule="evenodd" d="M14.6163 0.989008L12.0549 3.54807C11.8481 3.75498 11.5678 3.87153 11.2752 3.87221H7.24507C5.38187 3.87221 3.87227 5.38181 3.87227 7.24501V11.2751C3.87227 11.5698 3.7544 11.8486 3.54814 12.0571L0.986803 14.6162C0.354522 15.2487 -0.000671387 16.1064 -0.000671387 17.0007C-0.000671387 17.8951 0.354522 18.7528 0.986803 19.3853L3.54814 21.9466C3.75504 22.1534 3.87159 22.4338 3.87227 22.7263V26.7565C3.87227 28.6197 5.38187 30.1293 7.24507 30.1293H11.2752C11.5699 30.1293 11.8487 30.2471 12.0572 30.4534L14.6163 33.0147C15.2488 33.647 16.1065 34.0022 17.0008 34.0022C17.8951 34.0022 18.7528 33.647 19.3853 33.0147L21.9467 30.4534C22.1535 30.2465 22.4339 30.13 22.7264 30.1293H26.7565C28.6197 30.1293 30.1293 28.6197 30.1293 26.7565V22.7263C30.1293 22.4317 30.2472 22.1529 30.4535 21.9443L33.0148 19.3853C33.6471 18.7528 34.0023 17.8951 34.0023 17.0007C34.0023 16.1064 33.6471 15.2487 33.0148 14.6162L30.4535 12.0549C30.2466 11.8481 30.13 11.5677 30.1293 11.2751V7.24501C30.1293 5.38181 28.6197 3.87221 26.7565 3.87221H22.7264C22.4331 3.87213 22.1518 3.75553 21.9444 3.54807L19.3853 0.986741C18.7528 0.354461 17.8951 -0.000732422 17.0008 -0.000732422C16.1065 -0.000732422 15.2488 0.354461 14.6163 0.986741V0.989008ZM10.5317 21.865L21.8651 10.5317L23.4699 12.1365L12.1365 23.4698L10.5317 21.865ZM11.3341 11.3341V13.6007H13.6008V11.3341H11.3341ZM20.4008 22.6674H22.6675V20.4007H20.4008V22.6674Z" fill="#8B0C3C"/>
</g>
<defs>
<clipPath id="clip0">
<rect width="34" height="34" fill="white"/>
</clipPath>
</defs>
</svg>