<svg width="24" height="24" viewBox="0 0 24 24" fill="none" xmlns="http://www.w3.org/2000/svg">
<path d="M3.6 3.60001C3.28174 3.60001 2.97652 3.72643 2.75147 3.95148C2.52643 4.17652 2.4 4.48175 2.4 4.80001C2.4 5.11827 2.52643 5.42349 2.75147 5.64853C2.97652 5.87358 3.28174 6.00001 3.6 6.00001H16.8C17.1183 6.00001 17.4235 5.87358 17.6485 5.64853C17.8736 5.42349 18 5.11827 18 4.80001C18 4.48175 17.8736 4.17652 17.6485 3.95148C17.4235 3.72643 17.1183 3.60001 16.8 3.60001H3.6Z" fill="black"/>
<path d="M3.6 8.39999C3.28174 8.39999 2.97652 8.52642 2.75147 8.75147C2.52643 8.97651 2.4 9.28173 2.4 9.59999C2.4 9.91825 2.52643 10.2235 2.75147 10.4485C2.97652 10.6736 3.28174 10.8 3.6 10.8H12C12.3183 10.8 12.6235 10.6736 12.8485 10.4485C13.0736 10.2235 13.2 9.91825 13.2 9.59999C13.2 9.28173 13.0736 8.97651 12.8485 8.75147C12.6235 8.52642 12.3183 8.39999 12 8.39999H3.6Z" fill="black"/>
<path d="M3.6 13.2C3.28174 13.2 2.97652 13.3264 2.75147 13.5515C2.52643 13.7765 2.4 14.0818 2.4 14.4C2.4 14.7183 2.52643 15.0235 2.75147 15.2485C2.97652 15.4736 3.28174 15.6 3.6 15.6H8.4C8.71826 15.6 9.02349 15.4736 9.24853 15.2485C9.47357 15.0235 9.6 14.7183 9.6 14.4C9.6 14.0818 9.47357 13.7765 9.24853 13.5515C9.02349 13.3264 8.71826 13.2 8.4 13.2H3.6Z" fill="black"/>
<path d="M18 9.59999C18 9.28173 17.8736 8.97651 17.6485 8.75147C17.4235 8.52642 17.1183 8.39999 16.8 8.39999C16.4817 8.39999 16.1765 8.52642 15.9515 8.75147C15.7264 8.97651 15.6 9.28173 15.6 9.59999V16.3032L14.0484 14.7516C13.8221 14.533 13.519 14.4121 13.2043 14.4148C12.8897 14.4175 12.5887 14.5437 12.3662 14.7662C12.1437 14.9887 12.0175 15.2897 12.0148 15.6043C12.0121 15.9189 12.133 16.2221 12.3516 16.4484L15.9516 20.0484C16.1766 20.2734 16.4818 20.3997 16.8 20.3997C17.1182 20.3997 17.4234 20.2734 17.6484 20.0484L21.2484 16.4484C21.467 16.2221 21.5879 15.9189 21.5852 15.6043C21.5825 15.2897 21.4563 14.9887 21.2338 14.7662C21.0113 14.5437 20.7103 14.4175 20.3957 14.4148C20.081 14.4121 19.7779 14.533 19.5516 14.7516L18 16.3032V9.59999Z" fill="black"/>
</svg>
