<svg width="34" height="34" viewBox="0 0 34 34" fill="none" xmlns="http://www.w3.org/2000/svg">
<circle cx="17" cy="17" r="16" fill="#8B0C3C"/>
<path d="M18.0043 9.36629L13.4314 13.9392C13.1259 14.2446 12.9526 14.6656 12.9526 15.1031V23.3491C12.9526 24.2571 13.6955 25 14.6035 25H22.0324C22.6927 25 23.287 24.6038 23.5512 24.0012L26.2421 17.7197C26.9354 16.0853 25.7386 14.2694 23.9639 14.2694H19.3002L20.0843 10.4889C20.1669 10.0762 20.0431 9.65519 19.7459 9.35804C19.2589 8.87929 18.483 8.87929 18.0043 9.36629V9.36629ZM9.65087 25C10.5588 25 11.3017 24.2571 11.3017 23.3491V16.7457C11.3017 15.8377 10.5588 15.0948 9.65087 15.0948C8.74289 15.0948 8 15.8377 8 16.7457V23.3491C8 24.2571 8.74289 25 9.65087 25Z" fill="white"/>
</svg>